<svg width="53" height="52" viewBox="0 0 53 52" fill="none" xmlns="http://www.w3.org/2000/svg">
<g clip-path="url(#clip0_58_476)">
<path fill-rule="evenodd" clip-rule="evenodd" d="M18.4958 33.8288C18.4958 33.1592 18.0799 32.5603 17.4537 32.3259L4.60866 27.5089C4.11573 27.3243 3.5634 27.3917 3.12988 27.6919C2.69796 27.9922 2.43945 28.4851 2.43945 29.0118V45.0684C2.43945 45.7379 2.85532 46.3368 3.48151 46.5712L16.3266 51.3882C16.8195 51.5729 17.3718 51.5054 17.8054 51.2052C18.2373 50.9049 18.4958 50.412 18.4958 49.8853V33.8288ZM5.65072 43.9556L15.2845 47.5684V34.9415L5.65072 31.3288V43.9556Z" fill="white"/>
<path fill-rule="evenodd" clip-rule="evenodd" d="M16.3275 32.3259C15.7013 32.5603 15.2855 33.1592 15.2855 33.8288V49.8853C15.2855 50.412 15.544 50.9049 15.9759 51.2052C16.4094 51.5054 16.9617 51.5729 17.4547 51.3882L30.2997 46.5712C30.9259 46.3368 31.3418 45.7379 31.3418 45.0684V29.0118C31.3418 28.4851 31.0833 27.9922 30.6514 27.6919C30.2179 27.3917 29.6655 27.3243 29.1726 27.5089L16.3275 32.3259ZM18.4967 34.9415V47.5684L28.1305 43.9556V31.3288L18.4967 34.9415Z" fill="white"/>
<path fill-rule="evenodd" clip-rule="evenodd" d="M3.48245 27.5089C2.85625 27.7434 2.44039 28.3423 2.44039 29.0118C2.44039 29.6814 2.85625 30.2803 3.48245 30.5147L16.3275 35.3317C16.6904 35.4682 17.0918 35.4682 17.4547 35.3317L30.2997 30.5147C30.9259 30.2803 31.3418 29.6814 31.3418 29.0118C31.3418 28.3423 30.9259 27.7434 30.2997 27.5089L17.4547 22.692C17.0918 22.5555 16.6904 22.5555 16.3275 22.692L3.48245 27.5089ZM8.61887 29.0118L16.8911 32.1139L25.1633 29.0118L16.8911 25.9097L8.61887 29.0118Z" fill="white"/>
<path fill-rule="evenodd" clip-rule="evenodd" d="M34.6754 8.1395C37.2766 8.20587 39.3682 10.3382 39.3682 12.9554C39.3682 13.8417 38.6489 14.5611 37.7625 14.5611C36.9041 14.5611 36.2019 13.8856 36.159 13.0378L36.1548 12.873C36.1119 12.0252 35.4098 11.3497 34.5513 11.3497C33.665 11.3497 32.9456 12.0691 32.9456 12.9554C32.9456 13.8417 33.665 14.5611 34.5513 14.5611C35.4376 14.5611 36.1569 15.2804 36.1569 16.1667C36.1569 17.053 35.4376 17.7724 34.5513 17.7724C31.8923 17.7724 29.7344 15.6144 29.7344 12.9554C29.7344 10.2964 31.8923 8.13843 34.5513 8.13843L34.6754 8.1395Z" fill="white"/>
<path fill-rule="evenodd" clip-rule="evenodd" d="M34.5522 17.7724C35.4386 17.7724 36.1579 18.4918 36.1579 19.3781C36.1579 20.2644 35.4386 20.9838 34.5522 20.9838C33.6659 20.9838 32.9466 20.2644 32.9466 19.3781C32.9466 18.4918 32.2273 17.7724 31.341 17.7724C30.4547 17.7724 29.7353 18.4918 29.7353 19.3781C29.7353 22.0371 31.8933 24.1951 34.5522 24.1951C37.2112 24.1951 39.3691 22.0371 39.3691 19.3781C39.3691 16.7191 37.2112 14.5611 34.5522 14.5611C33.6659 14.5611 32.9466 15.2805 32.9466 16.1668C32.9466 17.0531 33.6659 17.7724 34.5522 17.7724Z" fill="white"/>
<path fill-rule="evenodd" clip-rule="evenodd" d="M32.9453 7.33564V9.74412C32.9453 10.6304 33.6646 11.3498 34.5509 11.3498C35.4373 11.3498 36.1566 10.6304 36.1566 9.74412V7.33564C36.1566 6.44931 35.4373 5.72998 34.5509 5.72998C33.6646 5.72998 32.9453 6.44931 32.9453 7.33564Z" fill="white"/>
<path fill-rule="evenodd" clip-rule="evenodd" d="M32.9453 22.5895V24.998C32.9453 25.8844 33.6646 26.6037 34.5509 26.6037C35.4373 26.6037 36.1566 25.8844 36.1566 24.998V22.5895C36.1566 21.7032 35.4373 20.9839 34.5509 20.9839C33.6646 20.9839 32.9453 21.7032 32.9453 22.5895Z" fill="white"/>
<path fill-rule="evenodd" clip-rule="evenodd" d="M27.1621 29.762L24.9286 28.9239C24.768 28.8628 24.6171 28.7777 24.4838 28.6702C20.8342 25.7254 18.498 21.2167 18.498 16.1669C18.498 7.3053 25.6929 0.110352 34.5544 0.110352C43.4159 0.110352 50.6107 7.3053 50.6107 16.1669C50.6107 25.0285 43.4159 32.2235 34.5544 32.2235C32.6774 32.2235 30.8759 31.9007 29.2012 31.3083C29.0037 31.2376 28.8255 31.1316 28.6745 30.9968C28.0435 30.9775 27.4575 30.5841 27.2215 29.9563C27.1974 29.8921 27.1781 29.8262 27.1621 29.762ZM31.2869 28.5915C32.3306 28.8661 33.4256 29.0122 34.5544 29.0122C41.6433 29.0122 47.3995 23.2559 47.3995 16.1669C47.3995 9.07794 41.6433 3.32166 34.5544 3.32166C27.4655 3.32166 21.7093 9.07794 21.7093 16.1669C21.7093 20.1184 23.498 23.6557 26.3078 26.0112L30.3011 27.5093L30.3589 27.5318L30.4167 27.5574L30.4375 27.5687L30.4841 27.5912L30.5082 27.604L30.5258 27.6136L30.5451 27.6249L30.5692 27.6393L30.6061 27.6634L30.6302 27.6779L30.6415 27.6859L30.6527 27.6923L30.7298 27.7501C30.7587 27.7726 30.7876 27.7967 30.8133 27.8208L30.8213 27.8272L30.8389 27.8449L30.8759 27.8802L30.8935 27.8978L30.9064 27.9107L30.9208 27.9267L30.9433 27.9508L30.969 27.9845L30.9851 28.0022L30.9931 28.0118L31.0043 28.0247L31.0589 28.1002C31.0798 28.1307 31.0991 28.1612 31.1183 28.1917L31.1215 28.1981L31.1328 28.219L31.1601 28.2671L31.1697 28.288L31.1793 28.3041L31.1874 28.3249L31.2018 28.3538L31.2179 28.3908L31.2275 28.4149L31.2323 28.4277L31.2387 28.4422L31.2612 28.5096L31.2677 28.5273L31.2693 28.5337L31.2869 28.5915Z" fill="white"/>
</g>
<defs>
<clipPath id="clip0_58_476">
<rect width="51.3804" height="51.3804" fill="white" transform="translate(0.830078 0.110107)"/>
</clipPath>
</defs>
</svg>
