<svg width="32" height="32" viewBox="0 0 32 32" fill="none" xmlns="http://www.w3.org/2000/svg">
<path d="M8.66406 25.3331H3.66406C3.11206 25.3331 2.66406 24.8851 2.66406 24.3331C2.66406 23.7811 3.11206 23.3331 3.66406 23.3331H8.66406C9.21606 23.3331 9.66406 23.7811 9.66406 24.3331C9.66406 24.8851 9.21606 25.3331 8.66406 25.3331ZM18.6641 25.3331H13.9974C13.4454 25.3331 12.9974 24.8851 12.9974 24.3331C12.9974 23.7811 13.4454 23.3331 13.9974 23.3331H17.8561L20.4281 11.3331H6.33073C5.77873 11.3331 5.33073 10.8851 5.33073 10.3331C5.33073 9.78113 5.77873 9.33313 6.33073 9.33313H21.6641C21.9667 9.33313 22.2521 9.47046 22.4414 9.7038C22.6321 9.9398 22.7054 10.2465 22.6414 10.5425L19.6414 24.5425C19.5427 25.0038 19.1361 25.3331 18.6641 25.3331Z" fill="#CE2225"/>
<path d="M29.9974 25.3331H28.664C28.112 25.3331 27.664 24.8851 27.664 24.3331C27.664 23.7811 28.112 23.3331 28.664 23.3331H29.1894L29.996 19.5665C29.9427 17.2225 28.02 15.3331 25.664 15.3331H21.6147L19.9 23.3331H23.3307C23.8827 23.3331 24.3307 23.7811 24.3307 24.3331C24.3307 24.8851 23.8827 25.3331 23.3307 25.3331H18.664C18.3614 25.3331 18.076 25.1958 17.8867 24.9625C17.696 24.7265 17.6227 24.4198 17.6867 24.1238L19.8294 14.1238C19.928 13.6625 20.3347 13.3331 20.8067 13.3331H25.664C29.156 13.3331 31.9974 16.1745 31.9974 19.6665C31.9974 19.7371 31.9907 19.8065 31.9747 19.8758L30.9747 24.5425C30.876 25.0038 30.4694 25.3331 29.9974 25.3331Z" fill="#CE2225"/>
<path d="M26 28C24.1627 28 22.6667 26.5053 22.6667 24.6667C22.6667 22.828 24.1627 21.3333 26 21.3333C27.8373 21.3333 29.3333 22.828 29.3333 24.6667C29.3333 26.5053 27.8373 28 26 28ZM26 23.3333C25.2653 23.3333 24.6667 23.9307 24.6667 24.6667C24.6667 25.4027 25.2653 26 26 26C26.7347 26 27.3333 25.4027 27.3333 24.6667C27.3333 23.9307 26.7347 23.3333 26 23.3333ZM11.3333 28C9.496 28 8 26.5053 8 24.6667C8 22.828 9.496 21.3333 11.3333 21.3333C13.1707 21.3333 14.6667 22.828 14.6667 24.6667C14.6667 26.5053 13.1707 28 11.3333 28ZM11.3333 23.3333C10.5987 23.3333 10 23.9307 10 24.6667C10 25.4027 10.5987 26 11.3333 26C12.068 26 12.6667 25.4027 12.6667 24.6667C12.6667 23.9307 12.068 23.3333 11.3333 23.3333ZM8.33333 14H3.66667C3.11467 14 2.66667 13.552 2.66667 13C2.66667 12.448 3.11467 12 3.66667 12H8.33333C8.88533 12 9.33333 12.448 9.33333 13C9.33333 13.552 8.88533 14 8.33333 14ZM8.33333 18H2.33333C1.78133 18 1.33333 17.552 1.33333 17C1.33333 16.448 1.78133 16 2.33333 16H8.33333C8.88533 16 9.33333 16.448 9.33333 17C9.33333 17.552 8.88533 18 8.33333 18ZM8.33333 22H1C0.448 22 0 21.552 0 21C0 20.448 0.448 20 1 20H8.33333C8.88533 20 9.33333 20.448 9.33333 21C9.33333 21.552 8.88533 22 8.33333 22Z" fill="#CE2225"/>
</svg>
