<svg width="52" height="52" viewBox="0 0 52 52" fill="none" xmlns="http://www.w3.org/2000/svg">
<g clip-path="url(#clip0_58_468)">
<path d="M14.1983 40.7861H6.17009C5.28378 40.7861 4.56445 40.0668 4.56445 39.1805C4.56445 38.2942 5.28378 37.5749 6.17009 37.5749H14.1983C15.0846 37.5749 15.8039 38.2942 15.8039 39.1805C15.8039 40.0668 15.0846 40.7861 14.1983 40.7861ZM30.2546 40.7861H22.7617C21.8754 40.7861 21.156 40.0668 21.156 39.1805C21.156 38.2942 21.8754 37.5749 22.7617 37.5749H28.9573L33.087 18.3072H10.4518C9.56547 18.3072 8.84615 17.5879 8.84615 16.7016C8.84615 15.8153 9.56547 15.0959 10.4518 15.0959H35.0715C35.5575 15.0959 36.0157 15.3165 36.3197 15.6911C36.6258 16.07 36.7435 16.5624 36.6408 17.0377L31.8239 39.5166C31.6655 40.2573 31.0125 40.7861 30.2546 40.7861Z" fill="white"/>
<path d="M48.4512 40.7862H46.3104C45.4241 40.7862 44.7047 40.0669 44.7047 39.1806C44.7047 38.2942 45.4241 37.5749 46.3104 37.5749H47.1539L48.4491 31.527C48.3635 27.7634 45.2764 24.7298 41.4935 24.7298H34.9917L32.2386 37.5749H37.747C38.6333 37.5749 39.3526 38.2942 39.3526 39.1806C39.3526 40.0669 38.6333 40.7862 37.747 40.7862H30.254C29.768 40.7862 29.3099 40.5657 29.0059 40.191C28.6998 39.8121 28.582 39.3197 28.6848 38.8444L32.1251 22.7881C32.2835 22.0473 32.9365 21.5186 33.6944 21.5186H41.4935C47.1004 21.5186 51.6625 26.0807 51.6625 31.6876C51.6625 31.8011 51.6518 31.9124 51.6261 32.0237L50.0205 39.5167C49.862 40.2574 49.2091 40.7862 48.4512 40.7862Z" fill="white"/>
<path d="M42.0278 45.0681C39.0777 45.0681 36.6757 42.6682 36.6757 39.716C36.6757 36.7638 39.0777 34.3639 42.0278 34.3639C44.9779 34.3639 47.3799 36.7638 47.3799 39.716C47.3799 42.6682 44.9779 45.0681 42.0278 45.0681ZM42.0278 37.5751C40.8482 37.5751 39.8869 38.5342 39.8869 39.716C39.8869 40.8977 40.8482 41.8568 42.0278 41.8568C43.2074 41.8568 44.1686 40.8977 44.1686 39.716C44.1686 38.5342 43.2074 37.5751 42.0278 37.5751ZM18.4785 45.0681C15.5284 45.0681 13.1263 42.6682 13.1263 39.716C13.1263 36.7638 15.5284 34.3639 18.4785 34.3639C21.4286 34.3639 23.8306 36.7638 23.8306 39.716C23.8306 42.6682 21.4286 45.0681 18.4785 45.0681ZM18.4785 37.5751C17.2989 37.5751 16.3376 38.5342 16.3376 39.716C16.3376 40.8977 17.2989 41.8568 18.4785 41.8568C19.6581 41.8568 20.6193 40.8977 20.6193 39.716C20.6193 38.5342 19.6581 37.5751 18.4785 37.5751ZM13.6616 22.5892H6.16858C5.28227 22.5892 4.56295 21.8699 4.56295 20.9836C4.56295 20.0973 5.28227 19.3779 6.16858 19.3779H13.6616C14.5479 19.3779 15.2672 20.0973 15.2672 20.9836C15.2672 21.8699 14.5479 22.5892 13.6616 22.5892ZM13.6616 29.0117H4.02773C3.14142 29.0117 2.4221 28.2924 2.4221 27.4061C2.4221 26.5198 3.14142 25.8005 4.02773 25.8005H13.6616C14.5479 25.8005 15.2672 26.5198 15.2672 27.4061C15.2672 28.2924 14.5479 29.0117 13.6616 29.0117ZM13.6616 35.4343H1.88689C1.00058 35.4343 0.28125 34.715 0.28125 33.8287C0.28125 32.9423 1.00058 32.223 1.88689 32.223H13.6616C14.5479 32.223 15.2672 32.9423 15.2672 33.8287C15.2672 34.715 14.5479 35.4343 13.6616 35.4343Z" fill="white"/>
</g>
<defs>
<clipPath id="clip0_58_468">
<rect width="51.3804" height="51.3804" fill="white" transform="translate(0.28125 0.110107)"/>
</clipPath>
</defs>
</svg>
