<svg width="18" height="18" viewBox="0 0 18 18" fill="none" xmlns="http://www.w3.org/2000/svg">
<path d="M17.0631 15.8922L14.0057 12.8595C15.1925 11.3797 15.7672 9.5015 15.6117 7.61101C15.4562 5.72053 14.5823 3.96147 13.1697 2.69553C11.757 1.4296 9.91306 0.753016 8.01689 0.804902C6.12073 0.856788 4.31651 1.6332 2.97522 2.97449C1.63393 4.31578 0.85752 6.12 0.805634 8.01616C0.753749 9.91232 1.43033 11.7563 2.69627 13.1689C3.9622 14.5816 5.72126 15.4555 7.61175 15.611C9.50223 15.7665 11.3805 15.1918 12.8602 14.005L15.8929 17.0377C15.9695 17.1149 16.0607 17.1762 16.1611 17.2181C16.2615 17.2599 16.3692 17.2814 16.478 17.2814C16.5868 17.2814 16.6945 17.2599 16.7949 17.2181C16.8954 17.1762 16.9865 17.1149 17.0631 17.0377C17.2117 16.884 17.2947 16.6786 17.2947 16.4649C17.2947 16.2512 17.2117 16.0458 17.0631 15.8922V15.8922ZM8.23699 14.005C7.09605 14.005 5.98073 13.6666 5.03207 13.0328C4.08341 12.3989 3.34402 11.4979 2.9074 10.4439C2.47078 9.38976 2.35654 8.22986 2.57913 7.11084C2.80171 5.99182 3.35113 4.96394 4.1579 4.15717C4.96467 3.3504 5.99255 2.80098 7.11157 2.57839C8.23059 2.35581 9.39049 2.47005 10.4446 2.90667C11.4987 3.34329 12.3996 4.08268 13.0335 5.03134C13.6674 5.98 14.0057 7.09532 14.0057 8.23626C14.0057 9.76622 13.3979 11.2335 12.3161 12.3154C11.2342 13.3972 9.76695 14.005 8.23699 14.005V14.005Z" fill="white"/>
</svg>
