<svg width="32" height="32" viewBox="0 0 32 32" fill="none" xmlns="http://www.w3.org/2000/svg">
<path d="M3.45606 25.2188L15.4561 30.5521H15.4641C15.6317 30.6276 15.8135 30.6667 15.9974 30.6667C16.1813 30.6667 16.3631 30.6276 16.5307 30.5521H16.5414L28.5414 25.2188C28.7767 25.1136 28.9764 24.9426 29.1165 24.7263C29.2566 24.51 29.331 24.2578 29.3307 24.0001V8.00009C29.3244 7.74357 29.247 7.49383 29.1072 7.27868C28.9674 7.06352 28.7706 6.89139 28.5387 6.78142L16.5387 1.44809C16.3683 1.37237 16.1839 1.33325 15.9974 1.33325C15.8109 1.33325 15.6265 1.37237 15.4561 1.44809L3.45606 6.78142C3.22431 6.89151 3.02761 7.06368 2.8878 7.2788C2.74799 7.49393 2.67055 7.7436 2.66406 8.00009V24.0001C2.66403 24.2581 2.73884 24.5105 2.87942 24.7268C3.01999 24.9431 3.2203 25.114 3.45606 25.2188ZM5.33073 10.0521L14.6641 14.2001V27.2814L5.33073 23.1334V10.0521ZM26.6641 23.1334L17.3307 27.2814V14.2001L26.6641 10.0521V23.1334ZM15.9974 4.12542L24.7147 8.00009L15.9974 11.8748L7.28006 8.00009L15.9974 4.12542Z" fill="#CE2225"/>
</svg>
