<svg width="52" height="52" viewBox="0 0 52 52" fill="none" xmlns="http://www.w3.org/2000/svg">
<path d="M26.0708 31.9465C23.1054 31.9465 20.3156 30.7924 18.2182 28.6951C16.1208 26.5977 14.9668 23.8079 14.9668 20.8425C14.9668 17.8771 16.1208 15.0873 18.2182 12.9899C20.3156 10.8926 23.1054 9.73853 26.0708 9.73853C29.0362 9.73853 31.826 10.8926 33.9233 12.9899C36.0207 15.0873 37.1748 17.8771 37.1748 20.8425C37.1748 23.8079 36.0207 26.5977 33.9233 28.6951C31.826 30.7924 29.0362 31.9465 26.0708 31.9465ZM26.0708 12.2473C21.3291 12.2473 17.4756 16.1059 17.4756 20.8425C17.4756 25.5842 21.3341 29.4377 26.0708 29.4377C30.8074 29.4377 34.6659 25.5791 34.6659 20.8425C34.6659 16.1009 30.8124 12.2473 26.0708 12.2473Z" fill="white"/>
<path d="M24.5062 25.7805L20.4219 21.6962L22.1981 19.9249L24.5062 22.233L29.9453 16.7939L31.7216 18.5652L24.5062 25.7805Z" fill="white"/>
<path d="M26.071 39.7046C25.2732 39.7046 24.4704 39.5089 23.7429 39.1226C23.5923 39.0423 23.4468 38.952 23.3063 38.8616C23.0454 38.686 22.7996 38.4853 22.5788 38.2595L20.662 36.3378C20.2004 35.8762 19.5933 35.6253 18.941 35.6253H16.2315C13.5069 35.6253 11.2891 33.4075 11.2891 30.6829V27.9734C11.2891 27.3312 11.0282 26.709 10.5766 26.2524L8.65992 24.3356C6.73315 22.4089 6.73315 19.2729 8.65992 17.3461L10.5766 15.4294C11.0282 14.9778 11.2891 14.3506 11.2891 13.7083V10.9988C11.2891 8.27427 13.5069 6.05648 16.2315 6.05648H18.941C19.5883 6.05648 20.2004 5.8056 20.662 5.34398L22.5788 3.42725C24.5055 1.50049 27.6415 1.50049 29.5633 3.42725L31.48 5.34398C31.9416 5.8056 32.5488 6.05648 33.2011 6.05648H35.9106C38.6351 6.05648 40.8529 8.27427 40.8529 10.9988V13.7083C40.8529 14.3556 41.1038 14.9678 41.5654 15.4294L43.4822 17.3461C45.4089 19.2729 45.4089 22.4089 43.4822 24.3356L41.5654 26.2524C41.1038 26.709 40.8529 27.3211 40.8529 27.9734V30.6829C40.8529 33.4075 38.6351 35.6253 35.9106 35.6253H33.2011C32.5488 35.6253 31.9416 35.8762 31.48 36.3378L29.5633 38.2545C29.3375 38.4803 29.0916 38.681 28.8307 38.8566C28.6952 38.9469 28.5447 39.0373 28.3942 39.1175C27.6717 39.5089 26.8688 39.7046 26.071 39.7046ZM16.2265 8.5703C14.8868 8.5703 13.7929 9.65913 13.7929 11.0038V13.7134C13.7929 15.033 13.2811 16.2723 12.3479 17.2056L10.4311 19.1223C9.48281 20.0707 9.48281 21.6111 10.4311 22.5594L12.3479 24.4761C13.2811 25.4094 13.7929 26.6488 13.7929 27.9684V30.6779C13.7929 32.0176 14.8818 33.1115 16.2265 33.1115H18.936C20.2556 33.1115 21.495 33.6232 22.4282 34.5565L24.345 36.4733C24.4554 36.5836 24.5758 36.684 24.7062 36.7743C24.7765 36.8195 24.8417 36.8646 24.917 36.8998C25.6345 37.2861 26.4925 37.2861 27.21 36.8998C27.2853 36.8596 27.3555 36.8195 27.4208 36.7743C27.5512 36.684 27.6767 36.5836 27.7871 36.4733L29.7038 34.5565C30.6371 33.6232 31.8764 33.1115 33.196 33.1115H35.9056C37.2453 33.1115 38.3391 32.0226 38.3391 30.6779V27.9684C38.3391 26.6488 38.8509 25.4094 39.7842 24.4761L41.7009 22.5594C42.6492 21.6111 42.6492 20.0707 41.7009 19.1173L39.7842 17.2006C38.8509 16.2673 38.3391 15.028 38.3391 13.7083V10.9988C38.3391 9.65913 37.2503 8.56529 35.9056 8.56529H33.196C31.8764 8.56529 30.6371 8.05349 29.7038 7.1152L27.7871 5.19847C27.3254 4.73685 26.7183 4.48597 26.066 4.48597C25.4187 4.48597 24.8066 4.73685 24.345 5.19847L22.4282 7.1152C21.495 8.04847 20.2556 8.56027 18.936 8.56027H16.2265V8.5703Z" fill="white"/>
<path d="M20.7932 49.6292L16.9648 44.9227L10.9688 45.8308L15.886 33.1162H18.9417C20.2614 33.1162 21.5007 33.628 22.434 34.5613L24.3507 36.478C24.4611 36.5884 24.5815 36.6888 24.712 36.7791L25.5399 37.336L20.7932 49.6292ZM18.0085 42.2282L20.0105 44.6918L22.5193 38.1991L20.6628 36.3375C20.2012 35.8759 19.594 35.625 18.9417 35.625H17.6071L14.8725 42.6999L18.0085 42.2282ZM31.3503 49.6242L26.5986 37.341L27.4265 36.7841C27.557 36.6988 27.6774 36.5984 27.7878 36.483L29.7045 34.5663C30.6378 33.633 31.8771 33.1212 33.1968 33.1212H36.2575L41.1698 45.8359L35.1737 44.9277L31.3503 49.6242ZM29.6242 38.1991L32.133 44.6918L34.1351 42.2282L37.2711 42.7049L34.5365 35.63H33.2018C32.5495 35.63 31.9424 35.8809 31.4808 36.3425L29.6242 38.1991Z" fill="white"/>
</svg>
