<svg width="53" height="52" viewBox="0 0 53 52" fill="none" xmlns="http://www.w3.org/2000/svg">
<path d="M44.0837 20.9838C44.0919 17.9214 43.3037 14.9095 41.7965 12.2437C40.2893 9.57784 38.1148 7.34972 35.4865 5.778C32.8581 4.20627 29.8663 3.34495 26.8046 3.27856C23.7429 3.21218 20.7166 3.94302 18.0226 5.39935C15.3286 6.85568 13.0596 8.98745 11.4383 11.5854C9.81689 14.1834 8.8989 17.1584 8.77438 20.2182C8.64985 23.2781 9.32307 26.3178 10.728 29.0389C12.1329 31.7601 14.2212 34.0692 16.7879 35.7396V46.674C16.7895 46.9112 16.8435 47.145 16.9463 47.3588C17.049 47.5726 17.1978 47.7609 17.382 47.9103C17.5653 48.0617 17.7799 48.1704 18.0104 48.2288C18.2409 48.2871 18.4814 48.2935 18.7146 48.2475L26.4217 46.674L34.1288 48.2796H34.4499C34.8757 48.2796 35.2841 48.1105 35.5852 47.8093C35.8864 47.5082 36.0555 47.0998 36.0555 46.674V35.7717C38.5181 34.1691 40.542 31.9774 41.9438 29.3953C43.3456 26.8131 44.0812 23.922 44.0837 20.9838ZM32.8442 44.7151L28.0273 43.7517V38.5655C29.6789 38.4157 31.3007 38.0318 32.8442 37.4255V44.7151ZM26.4217 35.4345C25.9959 35.4345 25.5875 35.6037 25.2863 35.9048C24.9852 36.2059 24.8161 36.6143 24.8161 37.0402V43.7517L19.9992 44.7151V34.8886C20.0033 34.8245 20.0033 34.7601 19.9992 34.6959C20.0099 34.5892 20.0099 34.4816 19.9992 34.3748C19.923 34.1847 19.8203 34.0063 19.6941 33.845C19.6167 33.7611 19.5306 33.6858 19.4372 33.6202C19.3918 33.5743 19.3435 33.5314 19.2927 33.4917C16.2547 31.7337 13.9605 28.9301 12.8383 25.6044C11.7161 22.2788 11.8426 18.6583 13.1943 15.4191C14.5461 12.1799 17.0305 9.54336 20.1838 8.00181C23.3371 6.46027 26.9436 6.11908 30.3301 7.04196C33.7165 7.96484 36.6513 10.0887 38.5865 13.017C40.5216 15.9452 41.3249 19.4777 40.8462 22.9548C40.3676 26.432 38.6398 29.6161 35.9854 31.9126C33.331 34.2091 29.9315 35.461 26.4217 35.4345Z" fill="white"/>
<path d="M35.2831 16.6003L30.4662 15.2677L27.7526 11.1251C27.6058 10.9065 27.4074 10.7275 27.175 10.6036C26.9426 10.4798 26.6833 10.415 26.42 10.415C26.1566 10.415 25.8973 10.4798 25.6649 10.6036C25.4325 10.7275 25.2342 10.9065 25.0873 11.1251L22.3256 15.2516L17.5087 16.5843C17.2607 16.6672 17.0367 16.8094 16.8561 16.9986C16.6756 17.1878 16.544 17.4182 16.4728 17.6698C16.4016 17.9214 16.3929 18.1866 16.4475 18.4424C16.5021 18.6981 16.6184 18.9367 16.7861 19.1372L19.869 23.0229L19.6602 27.9843C19.6431 28.252 19.6932 28.5198 19.8062 28.7631C19.9192 29.0065 20.0913 29.2176 20.3069 29.3773C20.5224 29.537 20.7746 29.6401 21.0403 29.6773C21.306 29.7144 21.5767 29.6844 21.8278 29.5899L26.42 27.8398L31.0763 29.5578C31.3274 29.6523 31.5982 29.6823 31.8639 29.6451C32.1296 29.608 32.3817 29.5049 32.5973 29.3452C32.8129 29.1855 32.985 28.9743 33.098 28.731C33.2109 28.4877 33.2611 28.2199 33.2439 27.9522L33.0352 22.9908L36.0538 19.1372C36.2168 18.9303 36.3263 18.6865 36.3728 18.4272C36.4193 18.1679 36.4013 17.9012 36.3204 17.6506C36.2395 17.3999 36.0982 17.173 35.9089 16.9898C35.7196 16.8067 35.4881 16.6729 35.2349 16.6003H35.2831ZM30.145 21.5136C29.91 21.8154 29.7904 22.1912 29.8079 22.5733L29.9363 25.7846L26.9819 24.6927C26.6195 24.5573 26.2204 24.5573 25.858 24.6927L22.9036 25.7846L23.0321 22.5733C23.0495 22.1912 22.9299 21.8154 22.6949 21.5136L20.736 19.0409L23.7707 18.1899C24.1394 18.0849 24.4583 17.8513 24.6698 17.5316L26.42 14.9144L28.1701 17.5316C28.3816 17.8513 28.7006 18.0849 29.0693 18.1899L32.1039 19.0409L30.145 21.5136Z" fill="white"/>
</svg>
