<svg width="18" height="22" viewBox="0 0 18 22" fill="none" xmlns="http://www.w3.org/2000/svg">
<path d="M14.9999 6.125C14.9999 2.8175 12.3074 0.125 8.99995 0.125C5.69245 0.125 2.99995 2.8175 2.99995 6.125C2.99995 9.4325 5.69245 12.125 8.99995 12.125C12.3074 12.125 14.9999 9.4325 14.9999 6.125ZM5.24995 6.125C5.24995 4.055 6.92995 2.375 8.99995 2.375C11.07 2.375 12.7499 4.055 12.7499 6.125C12.7499 8.195 11.07 9.875 8.99995 9.875C6.92995 9.875 5.24995 8.195 5.24995 6.125ZM10.7999 13.625H7.19995C3.26995 13.625 0.0749512 16.82 0.0749512 20.75C0.0749512 21.3725 0.577451 21.875 1.19995 21.875H16.7999C17.4224 21.875 17.9249 21.3725 17.9249 20.75C17.9249 16.82 14.7299 13.625 10.7999 13.625ZM2.45245 19.625C2.96245 17.48 4.89745 15.875 7.19995 15.875H10.7999C13.1024 15.875 15.0374 17.48 15.5474 19.625H2.45245Z" fill="#CE2225"/>
</svg>
