<svg width="32" height="32" viewBox="0 0 32 32" fill="none" xmlns="http://www.w3.org/2000/svg">
<path d="M30 6.62H2C1.17139 6.62 0.5 7.29188 0.5 8.12V11.8895C0.5 12.7177 1.17139 13.3895 2 13.3895C3.43896 13.3895 4.60986 14.5604 4.60986 15.9999C4.60986 17.4393 3.43896 18.6102 2 18.6102C1.17139 18.6102 0.5 19.2821 0.5 20.1102V23.8798C0.5 24.7079 1.17139 25.3798 2 25.3798H30C30.8286 25.3798 31.5 24.7079 31.5 23.8798V20.1102C31.5 19.2821 30.8286 18.6102 30 18.6102C28.561 18.6102 27.3901 17.4393 27.3901 15.9999C27.3901 14.5604 28.561 13.3895 30 13.3895C30.8286 13.3895 31.5 12.7176 31.5 11.8895V8.12C31.5 7.29187 30.8286 6.62 30 6.62ZM28.5 10.5936C26.1328 11.2509 24.3901 13.4257 24.3901 15.9999C24.3901 18.5741 26.1328 20.7489 28.5 21.4061V22.3798H3.5V21.4061C5.86719 20.7489 7.60986 18.5741 7.60986 15.9999C7.60986 13.4257 5.86719 11.2509 3.5 10.5936V9.62H28.5V10.5936Z" fill="#CE2225"/>
<path d="M21 20.9952C21.8286 20.9952 22.5 20.3234 22.5 19.4952V12.505C22.5 11.6769 21.8286 11.005 21 11.005C20.1714 11.005 19.5 11.6769 19.5 12.505V19.4952C19.5 20.3234 20.1714 20.9952 21 20.9952Z" fill="#CE2225"/>
</svg>
